<svg id="vector" xmlns="http://www.w3.org/2000/svg"
    width="108"
    height="108"
    viewBox="0 0 773 911">
    <g transform="translation(0, 236.86)" id="g_0">
        <path fill="#207E20" d="M461.68,181.79l-70.74,-28.13l-202,623.93l70.74,28.14l202,-623.94z"/>
        <path fill="#207E20" d="M0,724.05a136.85,186.95 0,1 0,273.7 0a136.85,186.95 0,1 0,-273.7 0z"/>
        <path fill="#207E20" d="M583.4,819.08l-167.6,-629.17l148.09,-48.45l167.6,629.17"/>
        <path fill="#207E20" d="M588.39,233.2l-199.51,-72q2.58,-8.51 5.68,-16.82C419.63,77.21 468,24.44 527,0Z"/>
        <path fill="#207E20" d="M730.32,767.23 L773,905.64A172,172 0,0 1,730.32 911c-65.82,0 -125,-37.55 -147.92,-93.8Z"/>
    </g>
</svg>
