<svg width="60" height="60" viewBox="0 0 60 60" fill="none" xmlns="http://www.w3.org/2000/svg">
    <g clip-path="url(#clip0_54937_4495)">
        <path d="M30 60C46.5685 60 60 46.5685 60 30C60 13.4315 46.5685 0 30 0C13.4315 0 0 13.4315 0 30C0 46.5685 13.4315 60 30 60Z" fill="#F7931A"/>
        <path d="M43.4794 26.2875C44.0682 22.3575 41.0738 20.2444 36.9826 18.8344L38.3101 13.5094L35.0701 12.7031L33.7763 17.8875C32.9251 17.6737 32.0513 17.475 31.1794 17.2762L32.4826 12.0581L29.2426 11.25L27.9151 16.5731C27.2101 16.4119 26.5163 16.2544 25.8451 16.0856L25.8488 16.0687L21.3788 14.9531L20.5163 18.4144C20.5163 18.4144 22.9219 18.9656 22.8713 18.9994C24.1838 19.3275 24.4201 20.1956 24.3807 20.8856L22.8694 26.9512C22.9594 26.9737 23.0757 27.0075 23.2069 27.0581L22.8638 26.9737L20.7451 35.4712C20.5838 35.8687 20.1769 36.4669 19.2582 36.24C19.2919 36.2869 16.9032 35.6531 16.9032 35.6531L15.2944 39.3619L19.5132 40.4138C20.2969 40.6106 21.0657 40.8169 21.8213 41.01L20.4807 46.395L23.7188 47.2012L25.0463 41.8762C25.9313 42.1144 26.7901 42.3356 27.6301 42.5456L26.3063 47.8481L29.5463 48.6544L30.8869 43.2806C36.4144 44.3269 40.5694 43.905 42.3188 38.9062C43.7288 34.8825 42.2494 32.5594 39.3413 31.0463C41.4601 30.5588 43.0538 29.1656 43.4794 26.2875ZM36.0732 36.6713C35.0738 40.6969 28.2957 38.52 26.0982 37.9744L27.8794 30.84C30.0769 31.3894 37.1213 32.475 36.0732 36.6713ZM37.0763 26.2294C36.1632 29.8913 30.5232 28.0294 28.6951 27.5738L30.3076 21.105C32.1357 21.5606 38.0288 22.41 37.0763 26.2294Z" fill="white"/>
    </g>
    <defs>
        <clipPath id="clip0_54937_4495">
            <rect width="60" height="60" fill="white"/>
        </clipPath>
    </defs>
</svg>
