<svg width="32" height="32" viewBox="0 0 32 32" fill="none" xmlns="http://www.w3.org/2000/svg">
    <path d="M23.9617 7.54494L23.945 7.53661L23.9033 7.51994C23.9117 7.53661 23.9367 7.54494 23.9617 7.54494Z" fill="#010202"/>
    <path d="M24.2114 9.49494L24.2448 9.47828L24.2531 9.46994L24.2614 9.46161C24.2448 9.46994 24.2281 9.48661 24.2114 9.49494Z" fill="#010202"/>
    <path d="M24.0115 7.5866L23.9781 7.55327L23.9531 7.54494C23.9698 7.5616 23.9865 7.57827 24.0115 7.5866Z" fill="#010202"/>
    <path d="M16.2029 26.6199C16.1779 26.6283 16.1529 26.6449 16.1362 26.6699L16.1529 26.6533C16.1779 26.6366 16.1946 26.6283 16.2029 26.6199Z" fill="#010202"/>
    <path d="M20.7446 25.7199C20.7446 25.6949 20.7279 25.6949 20.7362 25.7949C20.7362 25.7866 20.7362 25.7783 20.7446 25.7699C20.7362 25.7616 20.7362 25.7449 20.7446 25.7199Z" fill="#010202"/>
    <path d="M20.2698 26.6199C20.2448 26.6283 20.2198 26.6449 20.2031 26.6699L20.2198 26.6533C20.2448 26.6366 20.2615 26.6283 20.2698 26.6199Z" fill="#010202"/>
    <path d="M13.0115 26.8283C12.9948 26.8116 12.9698 26.8033 12.9448 26.7949C12.9615 26.8033 12.9865 26.8116 12.9948 26.8199L13.0115 26.8283Z" fill="#010202"/>
    <path d="M12.3033 26.1449C12.3033 26.1199 12.295 26.0866 12.2783 26.0616C12.2867 26.0866 12.295 26.1116 12.3033 26.1449Z" fill="#010202"/>
    <path d="M17.12 13.8366C16.1367 14.2616 15.0117 14.7366 13.5617 14.7366C12.9534 14.7366 12.3534 14.6533 11.77 14.4866L12.77 24.7866C12.8034 25.2199 13.0034 25.6199 13.32 25.9116C13.6367 26.2033 14.0534 26.3699 14.4867 26.3699C14.4867 26.3699 15.9117 26.4449 16.3867 26.4449C16.895 26.4449 18.4284 26.3699 18.4284 26.3699C18.8617 26.3699 19.2784 26.2116 19.595 25.9116C19.9117 25.6199 20.1117 25.2199 20.145 24.7866L21.22 13.4116C20.7367 13.2449 20.2534 13.1366 19.7117 13.1366C18.7617 13.1366 18.0034 13.4616 17.12 13.8366Z" fill="#FFDD06"/>
    <path d="M8.66162 9.45328L8.67829 9.46994L8.68662 9.47828C8.68662 9.46161 8.67829 9.45328 8.66162 9.45328Z" fill="#010202"/>
    <path d="M25.8531 9.32827L25.7031 8.56994C25.5698 7.88661 25.2615 7.23661 24.5615 6.99494C24.3365 6.91994 24.0781 6.87827 23.9115 6.71994C23.7365 6.55327 23.6865 6.30327 23.6448 6.06994C23.5698 5.63661 23.5032 5.20327 23.4282 4.76994C23.3615 4.39494 23.3115 3.97827 23.1448 3.64494C22.9198 3.18661 22.4615 2.91994 22.0032 2.74494C21.7698 2.66161 21.5281 2.58661 21.2865 2.51994C20.1448 2.21994 18.9448 2.11161 17.7698 2.04494C16.3615 1.96994 14.9448 1.98661 13.5365 2.11161C12.4865 2.20327 11.3865 2.31994 10.3948 2.68661C10.0281 2.81994 9.65315 2.97827 9.37815 3.26161C9.03648 3.60327 8.92815 4.14494 9.17815 4.56994C9.35315 4.87827 9.65315 5.09494 9.96982 5.23661C10.3781 5.41994 10.8115 5.56161 11.2531 5.65327C12.4865 5.92827 13.7531 6.02827 15.0115 6.07827C16.4031 6.13661 17.7948 6.08661 19.1865 5.94494C19.5281 5.90327 19.8698 5.86161 20.2115 5.81161C20.6115 5.75327 20.8698 5.21994 20.7532 4.86161C20.6115 4.41994 20.2282 4.25327 19.8032 4.31994C19.7365 4.32827 19.6781 4.33661 19.6115 4.34494L19.5698 4.35327C19.4198 4.36994 19.2782 4.38661 19.1282 4.40327C18.8282 4.43661 18.5282 4.46161 18.2198 4.48661C17.5448 4.53661 16.8615 4.55327 16.1781 4.55327C15.5115 4.55327 14.8448 4.53661 14.1781 4.48661C13.8698 4.46994 13.5698 4.44494 13.2698 4.41161C13.1281 4.39494 12.9948 4.37827 12.8615 4.36161L12.7281 4.34494H12.7031L12.5698 4.32827C12.2948 4.28661 12.0198 4.23661 11.7448 4.17827C11.7198 4.16994 11.6948 4.15327 11.6781 4.13661C11.6615 4.11994 11.6531 4.08661 11.6531 4.06161C11.6531 4.03661 11.6615 4.00327 11.6781 3.98661C11.6948 3.96994 11.7198 3.95327 11.7448 3.94494H11.7531C11.9865 3.89494 12.2281 3.85327 12.4698 3.81161C12.5531 3.79494 12.6281 3.78661 12.7115 3.77827C12.8615 3.76994 13.0115 3.74494 13.1615 3.71994C14.4615 3.58661 15.7698 3.53661 17.0781 3.57827C17.7115 3.59494 18.3448 3.63661 18.9781 3.69494C19.1115 3.71161 19.2532 3.71994 19.3865 3.73661C19.4365 3.74494 19.4865 3.75327 19.5448 3.75327L19.6531 3.76994C19.9615 3.81161 20.2615 3.86994 20.5698 3.93661C21.0198 4.03661 21.5948 4.06994 21.7948 4.55327C21.8615 4.71161 21.8865 4.87827 21.9198 5.04494L21.9615 5.25327V5.26161C22.0698 5.75327 22.1698 6.24494 22.2781 6.73661C22.2865 6.76994 22.2865 6.81161 22.2781 6.84494C22.2698 6.87827 22.2531 6.91994 22.2365 6.94494C22.2115 6.97827 22.1865 7.00327 22.1531 7.01994C22.1198 7.03661 22.0865 7.05327 22.0532 7.05327L21.9865 7.06161L21.9198 7.06994C21.7198 7.09494 21.5115 7.11994 21.3115 7.14494C20.9115 7.18661 20.5115 7.22827 20.1115 7.26161C19.3115 7.32827 18.5198 7.36994 17.7198 7.39494C17.3115 7.40327 16.9031 7.41161 16.4948 7.41161C14.8698 7.41161 13.2531 7.31994 11.6448 7.12827C11.4698 7.11161 11.2948 7.08661 11.1198 7.06161C11.2531 7.07827 11.0198 7.04494 10.9781 7.04494C10.8698 7.02827 10.7531 7.01161 10.6448 6.99494C10.2698 6.93661 9.90315 6.86994 9.52815 6.81161C9.07815 6.73661 8.65315 6.77827 8.24482 6.99494C7.91148 7.17827 7.64482 7.45328 7.46982 7.79494C7.29482 8.15328 7.24482 8.55327 7.16148 8.93661C7.08648 9.32827 6.96148 9.74494 7.01148 10.1449C7.11148 11.0033 7.71148 11.7033 8.57815 11.8616C9.39482 12.0116 10.2115 12.1283 11.0365 12.2283C14.2615 12.6199 17.5282 12.6699 20.7615 12.3699C21.0282 12.3449 21.2865 12.3199 21.5532 12.2866C21.6365 12.2783 21.7198 12.2866 21.7948 12.3116C21.8698 12.3366 21.9448 12.3866 22.0032 12.4449C22.0615 12.5033 22.1032 12.5699 22.1365 12.6533C22.1615 12.7283 22.1782 12.8116 22.1698 12.8949L22.0865 13.6949C21.9198 15.3033 21.7532 16.9116 21.5948 18.5283C21.4198 20.2199 21.2531 21.9116 21.0781 23.6033C21.0281 24.0783 20.9782 24.5533 20.9282 25.0283C20.8782 25.4949 20.8781 25.9783 20.7865 26.4449C20.6448 27.1699 20.1531 27.6199 19.4365 27.7866C18.7781 27.9366 18.1031 28.0116 17.4281 28.0199C16.6781 28.0199 15.9281 27.9949 15.1781 27.9949C14.3781 28.0033 13.3948 27.9283 12.7781 27.3283C12.2365 26.8033 12.1615 25.9866 12.0865 25.2783C11.9865 24.3449 11.8865 23.4033 11.7948 22.4699L11.2531 17.2616L10.9031 13.8866C10.8948 13.8283 10.8948 13.7783 10.8865 13.7199C10.8448 13.3199 10.5615 12.9283 10.1115 12.9449C9.72815 12.9616 9.29482 13.2866 9.33648 13.7199L9.59482 16.2199L10.1365 21.3866C10.2865 22.8533 10.4448 24.3199 10.5948 25.7949C10.6281 26.0783 10.6531 26.3616 10.6865 26.6366C10.8531 28.1783 12.0281 29.0033 13.4865 29.2366C14.3365 29.3699 15.2031 29.4033 16.0698 29.4116C17.1781 29.4283 18.2948 29.4699 19.3782 29.2699C20.9865 28.9783 22.1948 27.9033 22.3698 26.2283C22.4198 25.7449 22.4698 25.2616 22.5198 24.7866C22.6865 23.1949 22.8448 21.6033 23.0115 20.0033L23.5448 14.7949L23.7865 12.4116C23.7948 12.2949 23.8448 12.1783 23.9282 12.0949C24.0115 12.0116 24.1115 11.9449 24.2281 11.9283C24.6865 11.8366 25.1281 11.6866 25.4531 11.3366C25.9365 10.7866 26.0365 10.0616 25.8531 9.32827ZM8.53648 9.84494C8.54482 9.84494 8.52815 9.90327 8.52815 9.92827C8.51982 9.88661 8.51982 9.84494 8.53648 9.84494ZM8.57815 10.1866C8.57815 10.1866 8.59482 10.1949 8.60315 10.2199C8.58648 10.2033 8.57815 10.1866 8.57815 10.1866ZM8.61982 10.2449C8.64482 10.2949 8.63648 10.2783 8.61982 10.2449ZM24.1615 10.2116C23.9948 10.3699 23.7448 10.4449 23.5032 10.4783C20.7448 10.8866 17.9365 11.0949 15.1448 11.0033C13.1448 10.9366 11.1698 10.7116 9.18648 10.4366C8.99482 10.4116 8.78648 10.3699 8.65315 10.2283C8.40315 9.96161 8.52815 9.41994 8.59482 9.08661C8.65315 8.78661 8.76982 8.38661 9.12815 8.34494C9.67815 8.27827 10.3281 8.51161 10.8698 8.59494C11.5281 8.69494 12.1948 8.77828 12.8531 8.83661C15.6865 9.09494 18.5781 9.05327 21.3948 8.67827C21.9115 8.61161 22.4198 8.52827 22.9365 8.43661C23.3948 8.35327 23.8948 8.20328 24.1698 8.66994C24.3615 8.99494 24.3865 9.41994 24.3531 9.78661C24.3531 9.95327 24.2781 10.1033 24.1615 10.2116Z" fill="#010202"/>
</svg>
